<svg xmlns="http://www.w3.org/2000/svg" xmlns:xlink="http://www.w3.org/1999/xlink" width="100" height="100" viewBox="0 0 100 100"><defs><style>.a{fill:#fff;stroke:#707070;}.b{clip-path:url(#a);}.c{fill:#3a4ee8;}.d{fill:#153845;}</style><clipPath id="a"><rect class="a" width="100" height="100" transform="translate(362 1337)"/></clipPath></defs><g class="b" transform="translate(-362 -1337)"><g transform="translate(404.327 705.737)"><g transform="translate(-25.995 672.312)"><path class="c" d="M23.695,722.341a3.093,3.093,0,0,1-2.193-.908L1.016,700.947l-18.747,18.747a3.1,3.1,0,0,1-4.386,0,3.1,3.1,0,0,1,0-4.386l20.94-20.941a3.1,3.1,0,0,1,4.387,0l22.678,22.678a3.1,3.1,0,0,1-2.193,5.294Z" transform="translate(23.025 -693.459)"/></g><g transform="translate(-7.482 661.82)"><path class="c" d="M21.341,699.185c-1.175-1.46-.585-3.175.39-4.386L46.1,670.321a2.169,2.169,0,0,1,3.531,0l19.022,21.81a3.654,3.654,0,0,1,0,4.386,2.17,2.17,0,0,1-3.531,0L47.87,676.9,25.262,699.185C24.774,699.79,22.516,700.644,21.341,699.185Z" transform="translate(-21 -669.413)"/></g><g transform="translate(-28.524 643.472)"><path class="d" d="M36.136,703.118H-20.308c-4.2,0-7.609-4.419-7.609-9.85V653.322c0-5.431,3.413-9.85,7.609-9.85H36.136c4.2,0,7.609,4.419,7.609,9.85v39.945C43.745,698.7,40.332,703.118,36.136,703.118Zm-56.444-53.079c-1.4,0-2.536,1.473-2.536,3.283v39.945c0,1.81,1.138,3.283,2.536,3.283H36.136c1.4,0,2.536-1.473,2.536-3.283V653.322c0-1.811-1.138-3.283-2.536-3.283Z" transform="translate(27.917 -643.472)"/></g><g transform="translate(-28.839 709.553)"><path class="d" d="M40.614,769.369H-26.6a2.863,2.863,0,0,1-2.54-3.1,2.864,2.864,0,0,1,2.54-3.1H40.614a3.164,3.164,0,0,1,0,6.2Z" transform="translate(29.14 -763.166)"/></g></g></g></svg>