<svg xmlns="http://www.w3.org/2000/svg" xmlns:xlink="http://www.w3.org/1999/xlink" width="100" height="100" viewBox="0 0 100 100"><defs><style>.a{fill:#fff;stroke:#707070;}.b{clip-path:url(#a);}.c{fill:#3a4ee8;}.d{fill:#153845;}</style><clipPath id="a"><rect class="a" width="100" height="100" transform="translate(395 1337)"/></clipPath></defs><g class="b" transform="translate(-395 -1337)"><g transform="translate(332.341 1281.304)"><path class="c" d="M104.562,128.212H83.7a2.791,2.791,0,1,1,0-5.583h20.867a2.791,2.791,0,1,1,0,5.583Z" transform="translate(0.018 3.953)"/><path class="d" d="M109.555,105.952A15.61,15.61,0,0,1,93.962,90.362V83.287A15.609,15.609,0,0,1,109.554,67.7h12.8a2.787,2.787,0,0,1,2.787,2.787V90.355A15.609,15.609,0,0,1,109.555,105.952Zm0-32.672A10.02,10.02,0,0,0,99.546,83.289v7.075a10.022,10.022,0,0,0,10.009,10.009h0a10.02,10.02,0,0,0,10.009-10.009V73.276Z" transform="translate(0.957 0)"/><path class="d" d="M122.354,85.217h-25.6a2.791,2.791,0,1,1,0-5.583h25.6a2.791,2.791,0,0,1,0,5.583Z" transform="translate(0.957 0.859)"/><path class="d" d="M137.067,116.889l-4.266,4.266a24.142,24.142,0,0,1,1.983,9.616v5.017H86.234v-5.017a24.268,24.268,0,0,1,41.742-16.841l4.073-4.073a29.849,29.849,0,0,0-51.39,20.914v7.8a2.782,2.782,0,0,0,2.787,2.787h54.134a2.782,2.782,0,0,0,2.787-2.787v-8.308A29.531,29.531,0,0,0,137.067,116.889Z" transform="translate(0 2.373)"/><path class="c" d="M118.189,130.728a2.793,2.793,0,0,1-1.973-.818l-9.565-9.565A2.791,2.791,0,1,1,110.6,116.4l7.591,7.591,19.8-19.793a2.791,2.791,0,1,1,3.947,3.948l-21.77,21.765A2.786,2.786,0,0,1,118.189,130.728Z" transform="translate(1.812 2.568)"/></g></g></svg>